<svg id="Слой_1" data-name="Слой 1" xmlns="http://www.w3.org/2000/svg" viewBox="0 0 95.72 27.52"><defs><style>.cls-1,.cls-2,.cls-3{fill:#fff;}.cls-1,.cls-3{stroke:#fff;stroke-miterlimit:10;}.cls-1{stroke-width:0.5px;}.cls-3{stroke-width:1.5px;}</style></defs><title>light-outline-02</title><path class="cls-1" d="M7.13,27.19l2.8-3.37a8.47,8.47,0,0,0,5.28,2.27c2,0,3-.81,3-2.1s-1.22-1.8-3.1-2.58L12.34,20.2A6.32,6.32,0,0,1,8,14.28c0-3.6,3.18-6.47,7.66-6.47a9.91,9.91,0,0,1,6.92,2.85l-2.46,3.09a6.92,6.92,0,0,0-4.46-1.7c-1.68,0-2.75.71-2.75,1.95s1.41,1.81,3.29,2.57l2.74,1.12c2.63,1.07,4.27,2.84,4.27,5.91,0,3.61-3,6.73-8.11,6.73A11.78,11.78,0,0,1,7.13,27.19Z" transform="translate(-6.79 -3.06)"/><path class="cls-1" d="M26.84,8.21H31.7V29.93H26.84Z" transform="translate(-6.79 -3.06)"/><path class="cls-1" d="M36.74,8.21h7.75c4.56,0,8.3,1.6,8.3,6.76,0,5-3.74,7.14-8.3,7.14H41.6v7.82H36.74Zm7.35,10c2.56,0,3.91-1.1,3.91-3.21s-1.37-2.86-3.93-2.86H41.6v6.11Zm-.49,2.6L47,17.68l6.87,12.25H48.38Z" transform="translate(-6.79 -3.06)"/><path class="cls-1" d="M56.15,8.42A2.82,2.82,0,1,1,59.2,11H59a2.6,2.6,0,0,1-2.84-2.32A2.17,2.17,0,0,1,56.15,8.42Zm.38,5h4.85V29.93H56.53Z" transform="translate(-6.79 -3.06)"/><path class="cls-1" d="M65.89,19.87V8.21h4.86V20.37c0,4.25,1.33,5.72,3.74,5.72s3.81-1.47,3.81-5.72V8.21H83V19.87c0,7.29-2.94,10.46-8.5,10.46S65.89,27.16,65.89,19.87Z" transform="translate(-6.79 -3.06)"/><path class="cls-1" d="M86.2,27.19,89,23.82a8.52,8.52,0,0,0,5.29,2.27c2,0,3-.81,3-2.1s-1.22-1.8-3.1-2.58L91.4,20.2a6.32,6.32,0,0,1-4.34-5.92c0-3.6,3.19-6.47,7.66-6.47a9.9,9.9,0,0,1,6.92,2.85l-2.45,3.09a7,7,0,0,0-4.47-1.7c-1.67,0-2.74.71-2.74,1.95s1.41,1.81,3.28,2.57L98,17.69c2.62,1.07,4.26,2.84,4.26,5.91,0,3.61-3,6.73-8.1,6.73A11.77,11.77,0,0,1,86.2,27.19Z" transform="translate(-6.79 -3.06)"/><rect class="cls-2" x="48.41" width="7.64" height="11.97"/><path class="cls-3" d="M58.5,11H57.14v-.81H58.5V8.75h.83v1.43h1.35V11H59.33v1.43H58.5Z" transform="translate(-6.79 -3.06)"/></svg>